HIERARCHY
ROOT pelvis
{
  OFFSET 0 100 0
  CHANNELS 6 Xposition Yposition Zposition Zrotation Xrotation Yrotation
  JOINT pelvis_right_femur
  {
    OFFSET -10.78128 -3.44521 -0.5502486
    CHANNELS 3 Zrotation Xrotation Yrotation
    JOINT right_femur_tibia
    {
      OFFSET -0.8047443 -44.0398 -0.1307829
      CHANNELS 3 Zrotation Xrotation Yrotation
      JOINT right_tibia_foot
      {
        OFFSET 3.006224 -47.83518 -5
        CHANNELS 3 Zrotation Xrotation Yrotation
        End Site
        {
          OFFSET 0 -5 15
        }
      }
    }
  }
  JOINT pelvis_left_femur
  {
    OFFSET 10.78128 -3.44521 -0.5502486
    CHANNELS 3 Zrotation Xrotation Yrotation
    JOINT left_femur_tibia
    {
      OFFSET 0.8047443 -44.0398 -0.1307829
      CHANNELS 3 Zrotation Xrotation Yrotation
      JOINT left_tibia_foot
      {
        OFFSET -4.370144 -48.10324 -4.275266
        CHANNELS 3 Zrotation Xrotation Yrotation
        End Site
        {
          OFFSET 0 -5 15
        }
      }
    }
  }
  JOINT pelvis_spine1
  {
    OFFSET 0 6.468898 -3.129235
    CHANNELS 3 Zrotation Xrotation Yrotation
    JOINT spine1
    {
      OFFSET 0 23.15396 4.99043
      CHANNELS 3 Zrotation Xrotation Yrotation
      JOINT spine2
      {
        OFFSET 0 20.79997 -5.064912
        CHANNELS 3 Zrotation Xrotation Yrotation
        JOINT neck
        {
          OFFSET 0 14.38658 9.616178
          CHANNELS 3 Zrotation Xrotation Yrotation
          End Site
          {
            OFFSET 0 20 0
          }
        }
      }
      JOINT right_manubrium
      {
        OFFSET -5.722621 16.35077 3.967754
        CHANNELS 3 Zrotation Xrotation Yrotation
        JOINT right_clavicle
        {
          OFFSET -13.16364 1.694482 -4.693211
          CHANNELS 3 Zrotation Xrotation Yrotation
          JOINT right_humerus
          {
            OFFSET -28.5034 -0.3100689 -2.792744
            CHANNELS 3 Zrotation Xrotation Yrotation
            JOINT right_radius
            {
              OFFSET -25.15693 0.02248979 -1.271978
              CHANNELS 3 Zrotation Xrotation Yrotation
              End Site
              {
                OFFSET -15 0 0
              }
            }
          }
        }
      }
      JOINT left_manubrium
      {
        OFFSET 5.722621 16.35077 3.967754
        CHANNELS 3 Zrotation Xrotation Yrotation
        JOINT left_clavicle
        {
          OFFSET 13.16364 1.694482 -4.693211
          CHANNELS 3 Zrotation Xrotation Yrotation
          JOINT left_humerus
          {
            OFFSET 29.39168 -1.063119 -2.237045
            CHANNELS 3 Zrotation Xrotation Yrotation
            JOINT left_radius
            {
              OFFSET 24.59957 -0.9528479 0.9047498
              CHANNELS 3 Zrotation Xrotation Yrotation
              End Site
              {
                OFFSET 15 -0 -0
              }
            }
          }
        }
      }
    }
  }
}
MOTION
Frames: 10
Frame Time: 0.0416666666667
22.74589 102.7746 235.4343 1.91463 -7.740195 1.991696 0.4693165 11.91142 6.38926 -1.408532e-06 36.50015 8.293355e-07 1.216009 -10.6584 -4.615088 -2.79301 -15.86931 -8.378127 -1.801037e-06 19.45259 -1.198294e-06 -7.44941 -10.81713 19.93446 -2.181479 0.5533256 7.128217 -1.453309 9.06457 -3.494175 2.311942 23.02486 5.203814 2.604178 -15.99939 6.733109 2.454555 -19.98292 10.45906 83.0933 25.75808 -7.849605 -7.550342e-07 -1.995933e-07 22.65482 -21.71766 10.48448 12.49317 4.670642 -15.46085 -2.748627 -94.62272 27.9692 23.77113 9.478831e-07 2.971184e-07 -10.76032 -4.764261 6.737444 19.96258
23.75207 103.1906 241.2679 2.086697 -8.041633 2.346064 0.07094739 9.845316 6.46032 -2.363783e-06 42.92245 1.522217e-06 1.152001 -8.033592 -5.100582 -3.88084 -12.57427 -9.473857 -2.203927e-06 20.57798 4.897036e-07 -7.256593 -11.35678 19.83624 -2.437431 0.5241435 6.607734 -1.491156 9.041548 -3.580778 2.348965 23.20798 5.448431 2.746021 -16.04285 6.971711 2.782579 -19.09726 10.34659 83.5506 25.91676 -8.680274 -6.875076e-07 -1.981218e-07 21.15591 -21.21502 10.10336 11.94545 4.514321 -15.32469 -2.893947 -93.93737 28.50747 22.73982 8.160284e-07 4.917363e-07 -10.3666 -4.634923 6.864485 19.93021
24.75616 103.9734 246.955 2.282662 -8.150034 2.907931 -0.3129113 6.600643 6.414247 -3.300239e-06 48.84023 2.308523e-06 1.142346 -5.462315 -5.646966 -4.999233 -8.317961 -10.67822 -2.301222e-06 20.5946 2.061523e-06 -6.916058 -12.42484 19.68229 -2.748354 0.4796427 5.963022 -1.442673 8.945353 -3.809043 2.363372 23.37511 5.761774 2.901789 -16.17806 7.2724 3.14856 -18.11685 10.20262 84.19325 26.22224 -9.871728 -6.093598e-07 -1.813863e-07 19.45607 -20.56442 9.718075 11.29997 4.486127 -15.35023 -3.040922 -93.05917 29.12075 21.25752 7.107043e-07 6.715731e-07 -10.48037 -4.397475 7.076148 19.75817
25.74201 104.974 252.4668 2.410829 -7.922812 3.61717 -0.4744544 2.408363 6.228416 -3.840155e-06 52.32256 2.850746e-06 1.04442 -3.514963 -6.116434 -5.873447 -3.686698 -11.73353 -2.038142e-06 20.0169 3.238905e-06 -6.473132 -13.72603 19.38456 -3.002322 0.4050386 5.28795 -1.25179 8.799046 -4.19486 2.331834 23.40632 6.079148 3.046742 -16.43269 7.551189 3.498273 -17.15049 10.05871 84.74913 26.68576 -11.35481 -5.3208e-07 -1.597882e-07 17.66224 -19.68979 9.42326 10.54724 4.590566 -15.61434 -3.164265 -91.8254 29.63498 19.39795 6.4966e-07 7.923429e-07 -11.3049 -3.976048 7.398425 19.29236
26.70859 105.935 257.9094 2.510566 -7.594227 4.43349 -0.507867 -2.132399 5.855253 -3.661907e-06 52.8488 2.843525e-06 1.073991 -2.398974 -6.617738 -6.374862 0.7231858 -12.34172 -1.197125e-06 18.51776 3.699867e-06 -6.199222 -15.3083 18.97604 -3.171337 0.3752498 4.674371 -1.013101 8.629868 -4.670793 2.308921 23.42815 6.326369 3.131235 -16.61903 7.78661 3.651249 -16.36125 9.918071 85.65453 26.94314 -13.02498 -4.667221e-07 -1.086991e-07 16.11361 -19.09471 9.304878 9.947617 4.898842 -16.16079 -3.311083 -90.62703 29.95068 17.24441 6.801579e-07 8.447157e-07 -12.9269 -3.532522 7.674726 18.76157
27.64745 106.6597 263.2569 2.481275 -6.961405 5.265253 -0.3328297 -6.794024 5.322397 -2.729512e-06 50.09298 2.230243e-06 0.9168798 -2.178984 -6.876114 -6.523989 4.601997 -12.65877 -1.55397e-08 16.09611 3.490144e-06 -5.783033 -16.85233 18.44405 -3.217772 0.2990799 4.128916 -0.6736806 8.430303 -5.206921 2.240952 23.21666 6.485273 3.147871 -16.8473 7.918853 3.636514 -15.78434 9.773309 86.03545 27.13337 -14.54521 -3.930626e-07 -4.159084e-08 14.77655 -18.40008 9.291031 9.368054 5.305776 -16.8667 -3.423057 -88.94664 29.93045 15.00635 7.327512e-07 7.964733e-07 -15.01396 -2.889377 8.075399 17.85223
28.54402 106.9572 268.6259 2.397325 -6.331386 6.06953 -0.03880867 -11.40391 4.705587 -1.466706e-06 44.64995 1.426536e-06 0.8698438 -2.690978 -7.189356 -6.369468 7.976916 -12.50845 1.469959e-06 13.74547 2.826094e-06 -5.701552 -18.37803 17.73891 -3.142589 0.2851488 3.681627 -0.3186544 8.231548 -5.778146 2.196065 22.98888 6.542062 3.103097 -16.93321 7.969407 3.4378 -15.32123 9.640041 86.61477 27.06966 -16.14767 -3.425759e-07 4.149397e-08 13.63265 -17.98811 9.461305 8.914652 5.845282 -17.77545 -3.552431 -87.26667 29.67581 12.53978 8.652656e-07 6.939718e-07 -17.71832 -2.280389 8.336576 16.94687
29.38589 106.7633 274.1064 2.278792 -5.786493 6.802395 0.3382918 -15.67701 4.107892 -2.786321e-07 37.73488 7.75923e-07 0.8962558 -3.626092 -7.560704 -6.038822 10.81179 -12.0208 2.998719e-06 12.12784 1.986965e-06 -5.959746 -19.70724 16.90801 -2.969158 0.3260463 3.335396 0.02139619 8.064923 -6.339339 2.177461 22.78749 6.520499 3.02501 -16.90115 7.955249 3.135057 -14.92501 9.535633 87.38471 26.81404 -17.77452 -3.164515e-07 1.25137e-07 12.62374 -17.80792 9.767262 8.555742 6.429528 -18.78534 -3.692579 -85.75258 29.2651 10.05205 1.044015e-06 5.649408e-07 -20.71153 -1.749592 8.455809 16.13334
30.15776 106.1291 279.6464 2.085556 -5.185308 7.433361 0.7927654 -19.63153 3.586669 6.963404e-07 30.59946 3.456013e-07 0.7331929 -4.615066 -7.794073 -5.679689 13.30238 -11.55371 4.312304e-06 11.09846 1.205995e-06 -6.146657 -20.71715 16.05975 -2.747478 0.3252949 3.028849 0.3807658 7.927835 -6.871598 2.136457 22.49513 6.476294 2.947743 -16.92767 7.897103 2.85016 -14.56399 9.453366 87.80056 26.62759 -19.25071 -2.858337e-07 1.930912e-07 11.60728 -17.46428 10.05748 8.13673 6.93549 -19.74284 -3.804906 -84.13741 28.71892 7.793765 1.179794e-06 4.208294e-07 -23.50764 -1.139422 8.638563 15.19082
30.85365 105.1725 285.2335 1.879997 -4.702699 7.964796 1.291371 -22.81478 3.241348 1.356269e-06 24.44443 1.420744e-07 0.4689464 -5.40726 -7.974949 -5.356055 15.26476 -11.11617 5.255396e-06 11.42163 6.499725e-07 -6.397644 -21.26061 15.2706 -2.500055 0.3153297 2.798754 0.6972706 7.86542 -7.31674 2.099714 22.23542 6.420945 2.894395 -16.97582 7.81691 2.633755 -14.22186 9.419447 88.14242 26.49373 -20.56378 -2.645029e-07 2.329982e-07 10.62326 -17.09362 10.32344 7.711483 7.301326 -20.5692 -3.90691 -82.79542 28.17867 5.973191 1.274002e-06 3.053723e-07 -25.83998 -0.5850918 8.798915 14.35178
